<svg width="49" height="48" viewBox="0 0 49 48" fill="none" xmlns="http://www.w3.org/2000/svg">
<path d="M20.7189 3.67857C22.6446 1.67238 25.8554 1.67238 27.7811 3.67857C28.9791 4.92656 30.7481 5.44915 32.4317 5.05172C35.1246 4.41606 37.8167 6.18421 38.358 8.89763C38.6973 10.5984 39.9077 12.0215 41.5398 12.6078C44.1532 13.5468 45.4681 16.4868 44.4668 19.0769C43.8396 20.6994 44.0988 22.5554 45.1556 23.937C46.8497 26.1517 46.4011 29.3364 44.1516 30.9839C42.7501 32.0104 41.9877 33.72 42.1367 35.4509C42.3741 38.2096 40.2896 40.6672 37.5251 40.824C35.7963 40.922 34.2398 41.9366 33.4398 43.4723C32.1594 45.9301 29.0793 46.8551 26.6737 45.4792C25.172 44.6204 23.328 44.6204 21.8263 45.4792C19.4207 46.8551 16.3406 45.9301 15.0602 43.4723C14.2602 41.9366 12.7037 40.922 10.9749 40.824C8.21038 40.6672 6.12586 38.2096 6.36329 35.4509C6.51226 33.7201 5.74992 32.0104 4.3484 30.9839C2.09887 29.3364 1.65029 26.1517 3.34437 23.937C4.40117 22.5554 4.66039 20.6994 4.03321 19.0769C3.03192 16.4868 4.34676 13.5468 6.96018 12.6078C8.5923 12.0215 9.80274 10.5984 10.142 8.89763C10.6833 6.18421 13.3754 4.41606 16.0683 5.05172C17.7519 5.44915 19.5209 4.92656 20.7189 3.67857Z" fill="url(#paint0_linear_2114_7409)"/>
<path d="M20.7189 3.67857C22.6446 1.67238 25.8554 1.67238 27.7811 3.67857C28.9791 4.92656 30.7481 5.44915 32.4317 5.05172C35.1246 4.41606 37.8167 6.18421 38.358 8.89763C38.6973 10.5984 39.9077 12.0215 41.5398 12.6078C44.1532 13.5468 45.4681 16.4868 44.4668 19.0769C43.8396 20.6994 44.0988 22.5554 45.1556 23.937C46.8497 26.1517 46.4011 29.3364 44.1516 30.9839C42.7501 32.0104 41.9877 33.72 42.1367 35.4509C42.3741 38.2096 40.2896 40.6672 37.5251 40.824C35.7963 40.922 34.2398 41.9366 33.4398 43.4723C32.1594 45.9301 29.0793 46.8551 26.6737 45.4792C25.172 44.6204 23.328 44.6204 21.8263 45.4792C19.4207 46.8551 16.3406 45.9301 15.0602 43.4723C14.2602 41.9366 12.7037 40.922 10.9749 40.824C8.21038 40.6672 6.12586 38.2096 6.36329 35.4509C6.51226 33.7201 5.74992 32.0104 4.3484 30.9839C2.09887 29.3364 1.65029 26.1517 3.34437 23.937C4.40117 22.5554 4.66039 20.6994 4.03321 19.0769C3.03192 16.4868 4.34676 13.5468 6.96018 12.6078C8.5923 12.0215 9.80274 10.5984 10.142 8.89763C10.6833 6.18421 13.3754 4.41606 16.0683 5.05172C17.7519 5.44915 19.5209 4.92656 20.7189 3.67857Z" fill="url(#paint1_linear_2114_7409)" fill-opacity="0.1"/>
<path d="M7.60938 24.3196C7.60938 15.1297 15.0593 7.67969 24.2493 7.67969C33.4393 7.67969 40.8893 15.1297 40.8893 24.3196V24.6619C40.8893 33.8519 33.4393 41.3018 24.2493 41.3018C15.0593 41.3018 7.60938 33.8519 7.60938 24.6619V24.3196Z" fill="black" fill-opacity="0.04"/>
<path d="M13.9869 24.3196C13.9869 18.6519 18.5816 14.0573 24.2493 14.0573C29.9171 14.0573 34.5117 18.6519 34.5117 24.3196V24.6619C34.5117 30.3296 29.9171 34.9243 24.2493 34.9243C18.5816 34.9243 13.9869 30.3296 13.9869 24.6619V24.3196Z" stroke="white" stroke-opacity="0.3" stroke-width="12.7551"/>
<defs>
<linearGradient id="paint0_linear_2114_7409" x1="8.67809" y1="4.49498" x2="35.0059" y2="45.9933" gradientUnits="userSpaceOnUse">
<stop stop-color="#236BF3"/>
<stop offset="0.529" stop-color="#236BF3"/>
</linearGradient>
<linearGradient id="paint1_linear_2114_7409" x1="-7.99325" y1="-3.75" x2="28.4692" y2="61.3322" gradientUnits="userSpaceOnUse">
<stop stop-color="#236BF3"/>
<stop offset="1" stop-color="white" stop-opacity="0"/>
</linearGradient>
</defs>
</svg>
